<svg width="23" height="27" viewBox="0 0 23 27" fill="none" xmlns="http://www.w3.org/2000/svg">
<path d="M18.9246 3.2445C16.8307 1.15224 14.0469 0 11.0857 0C8.12463 0 5.34074 1.15224 3.24693 3.2445C1.15312 5.33675 0 8.11852 0 11.0774C0 13.1478 0.574127 15.244 1.70643 17.3076C2.59699 18.9306 3.83375 20.5372 5.38233 22.0828C7.99982 24.6953 10.5841 26.2218 10.6929 26.2855L11.0857 26.5157L11.4787 26.2855C11.5874 26.2218 14.1717 24.6952 16.7892 22.0828C18.3378 20.5372 19.5746 18.9306 20.4651 17.3076C21.5974 15.2439 22.1715 13.1478 22.1715 11.0774C22.1715 8.11847 21.0184 5.3367 18.9246 3.2445ZM15.7164 20.9593C13.8166 22.8606 11.892 24.1813 11.0857 24.7008C10.2794 24.1812 8.35488 22.8606 6.45507 20.9593C4.21905 18.7213 1.5536 15.1902 1.5536 11.0774C1.5536 5.82533 5.82973 1.55246 11.0857 1.55246C16.3418 1.55246 20.6179 5.82533 20.6179 11.0774C20.6179 15.1902 17.9524 18.7213 15.7164 20.9593Z" fill="#F47B0D"/>
<path d="M11.0857 6.39443C8.59016 6.39443 6.55989 8.42319 6.55989 10.9169C6.55989 13.4105 8.59021 15.4393 11.0857 15.4393C13.5813 15.4393 15.6116 13.4105 15.6116 10.9169C15.6116 8.42319 13.5813 6.39443 11.0857 6.39443ZM11.0857 13.8868C9.44684 13.8868 8.11355 12.5545 8.11355 10.9168C8.11355 9.27915 9.4469 7.94684 11.0857 7.94684C12.7246 7.94684 14.0579 9.27915 14.0579 10.9168C14.0579 12.5545 12.7246 13.8868 11.0857 13.8868Z" fill="#F47B0D"/>
</svg>
