<svg width="30" height="30" viewBox="0 0 30 30" fill="none" xmlns="http://www.w3.org/2000/svg">
<path d="M27.3695 15.6806C26.8792 12.6325 24.2269 10.2941 21.0458 10.2941H8.12092C7.69039 10.2941 7.26971 10.3371 6.86275 10.4186V6.86275H11.5902L8.67697 0H3.75901L0.327639 6.86275H5.14706V11.0277C3.3962 11.9496 2.12167 13.6583 1.79701 15.6806C1.44421 15.6514 1.08592 15.6627 0.729167 15.7167L0 15.8274C0 15.9001 0 14.9921 0.000114379 22.9203C0.0321977 24.6999 1.07328 26.2449 2.57353 26.9867V29.1667H4.28922V27.4453C4.3102 27.4466 4.33096 27.4489 4.35212 27.4499L5.14706 27.4504C26.5072 27.4457 24.682 27.4574 24.8775 27.4453V29.1667H26.5931V26.9867C28.0934 26.2449 29.1344 24.6999 29.1666 22.9203L29.1667 15.8274L28.4375 15.7167C28.0808 15.6626 27.7225 15.6514 27.3695 15.6806ZM4.81942 1.71569H7.54147L8.99809 5.14706H3.10373L4.81942 1.71569ZM4.28922 25.7252C2.86297 25.5801 1.74577 24.3658 1.71569 22.8965V17.3931C2.28123 17.4492 2.8143 17.674 3.26295 18.0527C3.89827 18.589 4.27206 19.3779 4.28922 20.2183V25.7252ZM4.36962 16.7416C4.09037 16.5059 3.78635 16.3069 3.46506 16.1466C3.73962 13.8205 5.72221 12.0098 8.12092 12.0098H13.7255V21.4461H6.0049C6.0049 21.3016 6.00496 21.9373 6.00479 20.1945C5.98065 18.857 5.38462 17.5985 4.36962 16.7416ZM6.0049 25.7353V23.1618H23.1618L23.1618 25.7353H6.0049ZM23.1619 20.1945V21.4461H15.4412V12.0098H21.0458C23.4419 12.0098 25.4276 13.8224 25.7019 16.1465C24.1778 16.9071 23.1931 18.4626 23.1619 20.1945ZM27.451 22.8965C27.4209 24.3658 26.3038 25.5801 24.8775 25.7252V20.2183C24.9078 18.732 26.0357 17.5336 27.451 17.3931V22.8965Z" fill="#F47B0D"/>
<path d="M18.8726 13.7255H20.5883V15.4412H18.8726V13.7255Z" fill="#F47B0D"/>
<path d="M18.8726 17.1569H20.5883V18.8726H18.8726V17.1569Z" fill="#F47B0D"/>
<path d="M8.57851 13.7255H10.2942V15.4412H8.57851V13.7255Z" fill="#F47B0D"/>
<path d="M8.57851 17.1569H10.2942V18.8726H8.57851V17.1569Z" fill="#F47B0D"/>
<path d="M15.4413 1.07299e-05V6.86276H29.1668V1.07299e-05C28.7079 1.07299e-05 15.8986 1.07299e-05 15.4413 1.07299e-05ZM21.4462 5.14707H17.1569V1.7157H21.4462V5.14707ZM27.4511 5.14707H23.1619V1.7157H27.4511V5.14707Z" fill="#F47B0D"/>
</svg>
