<svg width="50" height="50" viewBox="0 0 50 50" fill="none" xmlns="http://www.w3.org/2000/svg">
<path d="M0 47.7856H49.3271V49.2308H0V47.7856Z" fill="#F6F1EA"/>
<path d="M43.9801 42.9685V39.937C46.9607 39.5787 49.2789 37.0361 49.2789 33.9606V25.2898C49.2789 23.5725 48.5551 22.022 47.398 20.9239C47.751 20.0125 47.9302 19.0531 47.9302 18.0641C47.9302 13.6814 44.3646 10.1159 39.9819 10.1159C38.3651 10.1159 36.7894 10.6127 35.4678 11.5254C34.5364 10.4219 33.1438 9.73054 31.6002 9.73054C28.8112 9.73054 26.5422 11.9995 26.5422 14.7885V25.3861C26.5422 26.2542 26.7665 27.0808 27.163 27.8054C25.7733 27.4391 24.2479 27.1094 22.5922 26.8193V19.0275C22.5922 15.7074 19.891 13.0062 16.5708 13.0062C15.7623 13.0062 14.991 13.1674 14.286 13.4577C13.4824 11.0267 11.2143 9.34517 8.57444 9.34517C5.2543 9.34517 2.55306 12.0464 2.55306 15.3666V22.0886C1.00331 23.6927 0.048171 25.875 0.048171 28.2764C0.048171 32.947 3.66003 36.7895 8.23724 37.1586V42.9685H0V44.4137H16.7529L16.8549 44.3829C16.9531 44.3533 19.2877 43.6432 21.7183 42.3838C25.1302 40.6159 26.9726 38.6862 27.1943 36.6485C27.4251 34.5258 25.8764 32.4683 22.5922 30.5278V28.2877C25.5139 28.8108 28.0042 29.4567 30.0105 30.2133V31.0703C30.0105 34.572 32.601 37.4795 35.9661 37.9787C34.9548 40.7831 31.9659 43.0913 31.9334 43.116L30.2278 44.4137H49.3271V42.9685H43.9801ZM3.99819 15.3666C3.99819 12.8433 6.05115 10.7903 8.57444 10.7903C10.6776 10.7903 12.4707 12.1938 12.996 14.1858C11.5131 15.2836 10.5494 17.0449 10.5494 19.0275V19.5069C10.0334 19.4137 9.50221 19.3647 8.95981 19.3647C7.12459 19.3647 5.41731 19.9226 3.99819 20.8772V15.3666ZM8.23724 31.5418L5.80971 29.1143L4.78791 30.1361L8.23724 33.5854V35.7072C4.45803 35.3426 1.4933 32.1495 1.4933 28.2763C1.4933 24.1593 4.84282 20.8098 8.95981 20.8098C13.0768 20.8098 16.4263 24.1593 16.4263 28.2763C16.4263 32.1495 13.4616 35.3425 9.68237 35.7072V30.6951L13.1317 27.2458L12.1099 26.224L9.68237 28.6515V25.3861H8.23724V31.5418ZM15.8483 42.9685H9.68237V37.1586C10.5445 37.0891 11.3723 36.8962 12.1483 36.5978C13.1237 37.6584 14.4244 38.325 15.8483 38.4937V42.9685ZM16.5708 37.0917C15.4271 37.0917 14.3547 36.6747 13.5232 35.9281C16.1254 34.3702 17.8714 31.5236 17.8714 28.2764C17.8714 24.4276 15.4189 21.1412 11.9946 19.8971V19.0275C11.9946 16.5043 14.0475 14.4513 16.5708 14.4513C19.0941 14.4513 21.1471 16.5043 21.1471 19.0275V32.5154C21.1471 35.0387 19.0941 37.0917 16.5708 37.0917ZM25.7576 36.4916C25.4519 39.3091 20.1562 41.7191 17.2934 42.719V38.492C20.2739 38.1337 22.5922 35.5911 22.5922 32.5155V32.2257C24.8418 33.6889 25.9064 35.1207 25.7576 36.4916ZM39.9819 11.561C43.5678 11.561 46.485 14.4783 46.485 18.0641C46.485 18.7387 46.3814 19.396 46.1804 20.0279C45.4859 19.6406 44.7077 19.3858 43.8798 19.3005C43.3205 16.0055 40.4472 13.4879 36.9953 13.4879C36.8265 13.4879 36.6598 13.4961 36.4939 13.5078C36.4261 13.2468 36.3376 12.995 36.2316 12.753C37.3243 11.981 38.6359 11.561 39.9819 11.561ZM30.0105 28.6306C28.7996 28.035 27.9874 26.7851 27.9874 25.3861V14.7885C27.9874 12.7963 29.608 11.1757 31.6002 11.1757C33.2277 11.1757 34.6202 12.2509 35.0643 13.7615C32.1494 14.6016 30.0105 17.2912 30.0105 20.4727V28.6306ZM36.2728 42.9685H34.2639C34.8977 42.3354 35.6382 41.5008 36.2728 40.5328V42.9685ZM36.2728 31.5418L35.0013 30.2704L33.9795 31.2922L36.2728 33.5854V36.5612C33.5586 36.2059 31.4557 33.8797 31.4557 31.0702V20.4727C31.4557 17.4181 33.9407 14.933 36.9953 14.933C40.05 14.933 42.535 17.4181 42.535 20.4727V31.0703C42.535 33.8798 40.432 36.2059 37.7179 36.5613V30.6952L40.0111 28.402L38.9893 27.3802L37.7179 28.6515V24.9044H36.2728V31.5418ZM42.535 42.9685H37.7179V38.0178C38.0407 37.9845 38.3566 37.9279 38.6649 37.852C39.6478 39.0101 41.0343 39.7557 42.535 39.9382V42.9685ZM40.1392 37.3046C42.4152 36.1521 43.9801 33.7912 43.9801 31.0703V20.771C46.1613 21.1185 47.8338 23.0123 47.8338 25.2898V33.9606C47.8338 36.4839 45.7809 38.5368 43.2576 38.5368C42.0919 38.5368 40.9792 38.0868 40.1392 37.3046Z" fill="#F6F1EA"/>
<path d="M21.8696 9.15249C23.5961 9.15249 25.0008 7.74782 25.0008 6.02138C25.0008 4.29493 23.5961 2.89026 21.8696 2.89026C20.1432 2.89026 18.7385 4.29493 18.7385 6.02138C18.7385 7.74782 20.1432 9.15249 21.8696 9.15249ZM21.8696 4.33539C22.7992 4.33539 23.5556 5.09177 23.5556 6.02138C23.5556 6.95098 22.7992 7.70736 21.8696 7.70736C20.94 7.70736 20.1837 6.95098 20.1837 6.02138C20.1837 5.09177 20.94 4.33539 21.8696 4.33539Z" fill="#F6F1EA"/>
<path d="M21.1471 0H22.5922V1.44513H21.1471V0Z" fill="#F6F1EA"/>
<path d="M21.1471 10.5976H22.5922V12.0428H21.1471V10.5976Z" fill="#F6F1EA"/>
<path d="M15.8483 5.29881H17.2934V6.74394H15.8483V5.29881Z" fill="#F6F1EA"/>
<path d="M26.4459 5.29881H27.891V6.74394H26.4459V5.29881Z" fill="#F6F1EA"/>
<path d="M17.0989 2.27627L18.1206 1.25457L19.1423 2.27627L18.1206 3.29798L17.0989 2.27627Z" fill="#F6F1EA"/>
<path d="M24.591 9.76985L25.6127 8.74814L26.6344 9.76985L25.6127 10.7916L24.591 9.76985Z" fill="#F6F1EA"/>
<path d="M17.0981 9.76907L18.1198 8.74736L19.1415 9.76907L18.1198 10.7908L17.0981 9.76907Z" fill="#F6F1EA"/>
<path d="M24.5918 2.27706L25.6135 1.25535L26.6352 2.27706L25.6135 3.29876L24.5918 2.27706Z" fill="#F6F1EA"/>
<path d="M36.899 7.22565H43.1612C44.8877 7.22565 46.2923 5.82098 46.2923 4.09454C46.2923 2.36809 44.8877 0.96342 43.1612 0.96342C42.6709 0.96342 42.1958 1.07595 41.7643 1.29204C41.3327 1.07595 40.8576 0.96342 40.3673 0.96342C40.0687 0.96342 39.7707 1.00687 39.4846 1.09078C38.8097 0.399627 37.8785 0 36.899 0C34.9068 0 33.2862 1.62067 33.2862 3.61283C33.2862 5.60499 34.9068 7.22565 36.899 7.22565ZM36.899 1.44513C37.6036 1.44513 38.267 1.79042 38.6735 2.36886L39.036 2.88458L39.596 2.59555C39.8365 2.47146 40.0958 2.40865 40.3672 2.40865C40.7198 2.40865 41.0577 2.51684 41.3445 2.72147L41.7642 3.0209L42.1838 2.72147C42.4707 2.51674 42.8086 2.40855 43.1612 2.40855C44.0908 2.40855 44.8472 3.16493 44.8472 4.09454C44.8472 5.02414 44.0908 5.78052 43.1612 5.78052H36.899C35.7037 5.78052 34.7313 4.80814 34.7313 3.61283C34.7313 2.41751 35.7037 1.44513 36.899 1.44513Z" fill="#F6F1EA"/>
</svg>
